<svg id="visual" viewBox="0 0 900 200" width="900" height="200" xmlns="http://www.w3.org/2000/svg" xmlns:xlink="http://www.w3.org/1999/xlink" version="1.1"><path d="M0 73L11.5 69.3C23 65.7 46 58.3 69 53.2C92 48 115 45 138.2 48.3C161.3 51.7 184.7 61.3 207.8 67.2C231 73 254 75 277 78.7C300 82.3 323 87.7 346 82C369 76.3 392 59.7 415.2 55.7C438.3 51.7 461.7 60.3 484.8 58.3C508 56.3 531 43.7 554 39.8C577 36 600 41 623 42.3C646 43.7 669 41.3 692.2 46.7C715.3 52 738.7 65 761.8 72.2C785 79.3 808 80.7 831 75C854 69.3 877 56.7 888.5 50.3L900 44L900 201L888.5 201C877 201 854 201 831 201C808 201 785 201 761.8 201C738.7 201 715.3 201 692.2 201C669 201 646 201 623 201C600 201 577 201 554 201C531 201 508 201 484.8 201C461.7 201 438.3 201 415.2 201C392 201 369 201 346 201C323 201 300 201 277 201C254 201 231 201 207.8 201C184.7 201 161.3 201 138.2 201C115 201 92 201 69 201C46 201 23 201 11.5 201L0 201Z" fill="#02c39a"></path><path d="M0 61L11.5 62.7C23 64.3 46 67.7 69 73.2C92 78.7 115 86.3 138.2 89.7C161.3 93 184.7 92 207.8 94.2C231 96.3 254 101.7 277 98.8C300 96 323 85 346 82.5C369 80 392 86 415.2 87.2C438.3 88.3 461.7 84.7 484.8 80.2C508 75.7 531 70.3 554 75.5C577 80.7 600 96.3 623 99.2C646 102 669 92 692.2 85.5C715.3 79 738.7 76 761.8 80.5C785 85 808 97 831 97.2C854 97.3 877 85.7 888.5 79.8L900 74L900 201L888.5 201C877 201 854 201 831 201C808 201 785 201 761.8 201C738.7 201 715.3 201 692.2 201C669 201 646 201 623 201C600 201 577 201 554 201C531 201 508 201 484.8 201C461.7 201 438.3 201 415.2 201C392 201 369 201 346 201C323 201 300 201 277 201C254 201 231 201 207.8 201C184.7 201 161.3 201 138.2 201C115 201 92 201 69 201C46 201 23 201 11.5 201L0 201Z" fill="#00a99d"></path><path d="M0 114L11.5 115.5C23 117 46 120 69 117.7C92 115.3 115 107.7 138.2 108C161.3 108.3 184.7 116.7 207.8 113.7C231 110.7 254 96.3 277 92.3C300 88.3 323 94.7 346 96C369 97.3 392 93.7 415.2 93C438.3 92.3 461.7 94.7 484.8 95C508 95.3 531 93.7 554 93.5C577 93.3 600 94.7 623 97.7C646 100.7 669 105.3 692.2 109C715.3 112.7 738.7 115.3 761.8 115.5C785 115.7 808 113.3 831 111.7C854 110 877 109 888.5 108.5L900 108L900 201L888.5 201C877 201 854 201 831 201C808 201 785 201 761.8 201C738.7 201 715.3 201 692.2 201C669 201 646 201 623 201C600 201 577 201 554 201C531 201 508 201 484.8 201C461.7 201 438.3 201 415.2 201C392 201 369 201 346 201C323 201 300 201 277 201C254 201 231 201 207.8 201C184.7 201 161.3 201 138.2 201C115 201 92 201 69 201C46 201 23 201 11.5 201L0 201Z" fill="#008e95"></path><path d="M0 129L11.5 125.5C23 122 46 115 69 114.5C92 114 115 120 138.2 121.7C161.3 123.3 184.7 120.7 207.8 117.7C231 114.7 254 111.3 277 112.5C300 113.7 323 119.3 346 121.7C369 124 392 123 415.2 120.5C438.3 118 461.7 114 484.8 116.7C508 119.3 531 128.7 554 128.8C577 129 600 120 623 117.2C646 114.3 669 117.7 692.2 117C715.3 116.3 738.7 111.7 761.8 111.5C785 111.3 808 115.7 831 115.7C854 115.7 877 111.3 888.5 109.2L900 107L900 201L888.5 201C877 201 854 201 831 201C808 201 785 201 761.8 201C738.7 201 715.3 201 692.2 201C669 201 646 201 623 201C600 201 577 201 554 201C531 201 508 201 484.8 201C461.7 201 438.3 201 415.2 201C392 201 369 201 346 201C323 201 300 201 277 201C254 201 231 201 207.8 201C184.7 201 161.3 201 138.2 201C115 201 92 201 69 201C46 201 23 201 11.5 201L0 201Z" fill="#007384"></path><path d="M0 137L11.5 140C23 143 46 149 69 149.8C92 150.7 115 146.3 138.2 145.2C161.3 144 184.7 146 207.8 145.2C231 144.3 254 140.7 277 140.2C300 139.7 323 142.3 346 141.7C369 141 392 137 415.2 136.5C438.3 136 461.7 139 484.8 144.3C508 149.7 531 157.3 554 161C577 164.7 600 164.3 623 160C646 155.7 669 147.3 692.2 145.8C715.3 144.3 738.7 149.7 761.8 154C785 158.3 808 161.7 831 160.2C854 158.7 877 152.3 888.5 149.2L900 146L900 201L888.5 201C877 201 854 201 831 201C808 201 785 201 761.8 201C738.7 201 715.3 201 692.2 201C669 201 646 201 623 201C600 201 577 201 554 201C531 201 508 201 484.8 201C461.7 201 438.3 201 415.2 201C392 201 369 201 346 201C323 201 300 201 277 201C254 201 231 201 207.8 201C184.7 201 161.3 201 138.2 201C115 201 92 201 69 201C46 201 23 201 11.5 201L0 201Z" fill="#00596f"></path><path d="M0 166L11.5 167.3C23 168.7 46 171.3 69 173.3C92 175.3 115 176.7 138.2 173.8C161.3 171 184.7 164 207.8 164C231 164 254 171 277 172.3C300 173.7 323 169.3 346 166.5C369 163.7 392 162.3 415.2 162.3C438.3 162.3 461.7 163.7 484.8 165.2C508 166.7 531 168.3 554 168.5C577 168.7 600 167.3 623 166.7C646 166 669 166 692.2 168.2C715.3 170.3 738.7 174.7 761.8 175.3C785 176 808 173 831 173.7C854 174.3 877 178.7 888.5 180.8L900 183L900 201L888.5 201C877 201 854 201 831 201C808 201 785 201 761.8 201C738.7 201 715.3 201 692.2 201C669 201 646 201 623 201C600 201 577 201 554 201C531 201 508 201 484.8 201C461.7 201 438.3 201 415.2 201C392 201 369 201 346 201C323 201 300 201 277 201C254 201 231 201 207.8 201C184.7 201 161.3 201 138.2 201C115 201 92 201 69 201C46 201 23 201 11.5 201L0 201Z" fill="#024058"></path></svg>