<svg id="visual" viewBox="0 0 900 200" width="900" height="200" xmlns="http://www.w3.org/2000/svg" xmlns:xlink="http://www.w3.org/1999/xlink" version="1.1"><path d="M0 39L11.5 45C23 51 46 63 69 69.3C92 75.7 115 76.3 138.2 72.2C161.3 68 184.7 59 207.8 59.3C231 59.7 254 69.3 277 76.5C300 83.7 323 88.3 346 83.3C369 78.3 392 63.7 415.2 59.5C438.3 55.3 461.7 61.7 484.8 68.2C508 74.7 531 81.3 554 81.2C577 81 600 74 623 71.2C646 68.3 669 69.7 692.2 68C715.3 66.3 738.7 61.7 761.8 56.8C785 52 808 47 831 53.2C854 59.3 877 76.7 888.5 85.3L900 94L900 201L888.5 201C877 201 854 201 831 201C808 201 785 201 761.8 201C738.7 201 715.3 201 692.2 201C669 201 646 201 623 201C600 201 577 201 554 201C531 201 508 201 484.8 201C461.7 201 438.3 201 415.2 201C392 201 369 201 346 201C323 201 300 201 277 201C254 201 231 201 207.8 201C184.7 201 161.3 201 138.2 201C115 201 92 201 69 201C46 201 23 201 11.5 201L0 201Z" fill="#02c39a"></path><path d="M0 111L11.5 107.3C23 103.7 46 96.3 69 89C92 81.7 115 74.3 138.2 74.3C161.3 74.3 184.7 81.7 207.8 82.3C231 83 254 77 277 74.8C300 72.7 323 74.3 346 73.2C369 72 392 68 415.2 73.7C438.3 79.3 461.7 94.7 484.8 99.5C508 104.3 531 98.7 554 91.7C577 84.7 600 76.3 623 72.7C646 69 669 70 692.2 75.3C715.3 80.7 738.7 90.3 761.8 96.8C785 103.3 808 106.7 831 107.7C854 108.7 877 107.3 888.5 106.7L900 106L900 201L888.5 201C877 201 854 201 831 201C808 201 785 201 761.8 201C738.7 201 715.3 201 692.2 201C669 201 646 201 623 201C600 201 577 201 554 201C531 201 508 201 484.8 201C461.7 201 438.3 201 415.2 201C392 201 369 201 346 201C323 201 300 201 277 201C254 201 231 201 207.8 201C184.7 201 161.3 201 138.2 201C115 201 92 201 69 201C46 201 23 201 11.5 201L0 201Z" fill="#00a99d"></path><path d="M0 87L11.5 94.2C23 101.3 46 115.7 69 119.7C92 123.7 115 117.3 138.2 115.2C161.3 113 184.7 115 207.8 111.8C231 108.7 254 100.3 277 100C300 99.7 323 107.3 346 108.8C369 110.3 392 105.7 415.2 105.8C438.3 106 461.7 111 484.8 111.7C508 112.3 531 108.7 554 107C577 105.3 600 105.7 623 104.8C646 104 669 102 692.2 98.2C715.3 94.3 738.7 88.7 761.8 86.5C785 84.3 808 85.7 831 91.5C854 97.3 877 107.7 888.5 112.8L900 118L900 201L888.5 201C877 201 854 201 831 201C808 201 785 201 761.8 201C738.7 201 715.3 201 692.2 201C669 201 646 201 623 201C600 201 577 201 554 201C531 201 508 201 484.8 201C461.7 201 438.3 201 415.2 201C392 201 369 201 346 201C323 201 300 201 277 201C254 201 231 201 207.8 201C184.7 201 161.3 201 138.2 201C115 201 92 201 69 201C46 201 23 201 11.5 201L0 201Z" fill="#008e95"></path><path d="M0 121L11.5 122.8C23 124.7 46 128.3 69 130C92 131.7 115 131.3 138.2 130.5C161.3 129.7 184.7 128.3 207.8 130.3C231 132.3 254 137.7 277 141.2C300 144.7 323 146.3 346 142.5C369 138.7 392 129.3 415.2 125.5C438.3 121.7 461.7 123.3 484.8 126.8C508 130.3 531 135.7 554 136.7C577 137.7 600 134.3 623 134.5C646 134.7 669 138.3 692.2 137.7C715.3 137 738.7 132 761.8 128C785 124 808 121 831 118C854 115 877 112 888.5 110.5L900 109L900 201L888.5 201C877 201 854 201 831 201C808 201 785 201 761.8 201C738.7 201 715.3 201 692.2 201C669 201 646 201 623 201C600 201 577 201 554 201C531 201 508 201 484.8 201C461.7 201 438.3 201 415.2 201C392 201 369 201 346 201C323 201 300 201 277 201C254 201 231 201 207.8 201C184.7 201 161.3 201 138.2 201C115 201 92 201 69 201C46 201 23 201 11.5 201L0 201Z" fill="#007384"></path><path d="M0 164L11.5 164C23 164 46 164 69 163.8C92 163.7 115 163.3 138.2 159.3C161.3 155.3 184.7 147.7 207.8 145.7C231 143.7 254 147.3 277 149.3C300 151.3 323 151.7 346 149.5C369 147.3 392 142.7 415.2 141C438.3 139.3 461.7 140.7 484.8 142.3C508 144 531 146 554 147.3C577 148.7 600 149.3 623 148.2C646 147 669 144 692.2 142C715.3 140 738.7 139 761.8 139.8C785 140.7 808 143.3 831 143.5C854 143.7 877 141.3 888.5 140.2L900 139L900 201L888.5 201C877 201 854 201 831 201C808 201 785 201 761.8 201C738.7 201 715.3 201 692.2 201C669 201 646 201 623 201C600 201 577 201 554 201C531 201 508 201 484.8 201C461.7 201 438.3 201 415.2 201C392 201 369 201 346 201C323 201 300 201 277 201C254 201 231 201 207.8 201C184.7 201 161.3 201 138.2 201C115 201 92 201 69 201C46 201 23 201 11.5 201L0 201Z" fill="#00596f"></path><path d="M0 170L11.5 169.5C23 169 46 168 69 166.8C92 165.7 115 164.3 138.2 166.5C161.3 168.7 184.7 174.3 207.8 173.3C231 172.3 254 164.7 277 165.3C300 166 323 175 346 178.5C369 182 392 180 415.2 179.8C438.3 179.7 461.7 181.3 484.8 181.8C508 182.3 531 181.7 554 179.5C577 177.3 600 173.7 623 174.2C646 174.7 669 179.3 692.2 180.7C715.3 182 738.7 180 761.8 178.7C785 177.3 808 176.7 831 176.2C854 175.7 877 175.3 888.5 175.2L900 175L900 201L888.5 201C877 201 854 201 831 201C808 201 785 201 761.8 201C738.7 201 715.3 201 692.2 201C669 201 646 201 623 201C600 201 577 201 554 201C531 201 508 201 484.8 201C461.7 201 438.3 201 415.2 201C392 201 369 201 346 201C323 201 300 201 277 201C254 201 231 201 207.8 201C184.7 201 161.3 201 138.2 201C115 201 92 201 69 201C46 201 23 201 11.5 201L0 201Z" fill="#024058"></path></svg>