<svg width="64" height="64" viewBox="0 0 64 64" fill="none" xmlns="http://www.w3.org/2000/svg">
<circle cx="32" cy="32" r="29" fill="#F0F3BD"/>
<path d="M32 32L35.5 27.5L39.5 25L43 24.122L47 24L51 24.5L53.5 25.5L56.5 27.5L58.5 30L59.5 31.5L60 33.5V36L59.5 39.5L58 44L56 47L52.5 51.5L48 55L44 57.5L40 59L34.5 60L29.5 60.5L24.5 59.5L20.5 58L17.5 56L14.5 54L11.5 51.5L9 49L7 45.6003L5.5 42.5L4 38L3.5 34.5L4 30.5L4.5 32.2406L6 35L8 36.5L10 38L13 39.5L16 40L20.8918 39.5L26 38L32 32Z" fill="#00A896"/>
<path fill-rule="evenodd" clip-rule="evenodd" d="M32 64C49.6731 64 64 49.6731 64 32C64 14.3269 49.6731 0 32 0C14.3269 0 0 14.3269 0 32C0 49.6731 14.3269 64 32 64ZM32 60C47.464 60 60 47.464 60 32C60 16.536 47.464 4 32 4C16.536 4 4 16.536 4 32C4 47.464 16.536 60 32 60Z" fill="white"/>
</svg>
