<svg width="1563" height="630" viewBox="0 0 1563 630" fill="none" xmlns="http://www.w3.org/2000/svg">
<rect width="1563" height="630" fill="#181818"/>
<g clip-path="url(#clip0_178_1154)">
<path d="M0 503L19.9717 499.3C39.9433 495.7 79.8867 488.3 119.83 483.2C159.773 478 199.717 475 240.007 478.3C280.124 481.7 320.762 491.3 360.879 497.2C401.17 503 441.113 505 481.057 508.7C521 512.3 560.943 517.7 600.887 512C640.83 506.3 680.773 489.7 721.064 485.7C761.181 481.7 801.819 490.3 841.936 488.3C882.227 486.3 922.17 473.7 962.113 469.8C1002.06 466 1042 471 1081.94 472.3C1121.89 473.7 1161.83 471.3 1202.12 476.7C1242.24 482 1282.88 495 1322.99 502.2C1363.28 509.3 1403.23 510.7 1443.17 505C1483.11 499.3 1523.06 486.7 1543.03 480.3L1563 474V631H1543.03C1523.06 631 1483.11 631 1443.17 631C1403.23 631 1363.28 631 1322.99 631C1282.88 631 1242.24 631 1202.12 631C1161.83 631 1121.89 631 1081.94 631C1042 631 1002.06 631 962.113 631C922.17 631 882.227 631 841.936 631C801.819 631 761.181 631 721.064 631C680.773 631 640.83 631 600.887 631C560.943 631 521 631 481.057 631C441.113 631 401.17 631 360.879 631C320.762 631 280.124 631 240.007 631C199.717 631 159.773 631 119.83 631C79.8867 631 39.9433 631 19.9717 631H0V503Z" fill="#02C39A"/>
<path d="M0 491L19.9717 492.7C39.9433 494.3 79.8867 497.7 119.83 503.2C159.773 508.7 199.717 516.3 240.007 519.7C280.124 523 320.762 522 360.879 524.2C401.17 526.3 441.113 531.7 481.057 528.8C521 526 560.943 515 600.887 512.5C640.83 510 680.773 516 721.064 517.2C761.181 518.3 801.819 514.7 841.936 510.2C882.227 505.7 922.17 500.3 962.113 505.5C1002.06 510.7 1042 526.3 1081.94 529.2C1121.89 532 1161.83 522 1202.12 515.5C1242.24 509 1282.88 506 1322.99 510.5C1363.28 515 1403.23 527 1443.17 527.2C1483.11 527.3 1523.06 515.7 1543.03 509.8L1563 504V631H1543.03C1523.06 631 1483.11 631 1443.17 631C1403.23 631 1363.28 631 1322.99 631C1282.88 631 1242.24 631 1202.12 631C1161.83 631 1121.89 631 1081.94 631C1042 631 1002.06 631 962.113 631C922.17 631 882.227 631 841.936 631C801.819 631 761.181 631 721.064 631C680.773 631 640.83 631 600.887 631C560.943 631 521 631 481.057 631C441.113 631 401.17 631 360.879 631C320.762 631 280.124 631 240.007 631C199.717 631 159.773 631 119.83 631C79.8867 631 39.9433 631 19.9717 631H0V491Z" fill="#00A99D"/>
<path d="M0 544L19.9717 545.5C39.9433 547 79.8867 550 119.83 547.7C159.773 545.3 199.717 537.7 240.007 538C280.124 538.3 320.762 546.7 360.879 543.7C401.17 540.7 441.113 526.3 481.057 522.3C521 518.3 560.943 524.7 600.887 526C640.83 527.3 680.773 523.7 721.064 523C761.181 522.3 801.819 524.7 841.936 525C882.227 525.3 922.17 523.7 962.113 523.5C1002.06 523.3 1042 524.7 1081.94 527.7C1121.89 530.7 1161.83 535.3 1202.12 539C1242.24 542.7 1282.88 545.3 1322.99 545.5C1363.28 545.7 1403.23 543.3 1443.17 541.7C1483.11 540 1523.06 539 1543.03 538.5L1563 538V631H1543.03C1523.06 631 1483.11 631 1443.17 631C1403.23 631 1363.28 631 1322.99 631C1282.88 631 1242.24 631 1202.12 631C1161.83 631 1121.89 631 1081.94 631C1042 631 1002.06 631 962.113 631C922.17 631 882.227 631 841.936 631C801.819 631 761.181 631 721.064 631C680.773 631 640.83 631 600.887 631C560.943 631 521 631 481.057 631C441.113 631 401.17 631 360.879 631C320.762 631 280.124 631 240.007 631C199.717 631 159.773 631 119.83 631C79.8867 631 39.9433 631 19.9717 631H0V544Z" fill="#008E95"/>
<path d="M0 559L19.9717 555.5C39.9433 552 79.8867 545 119.83 544.5C159.773 544 199.717 550 240.007 551.7C280.124 553.3 320.762 550.7 360.879 547.7C401.17 544.7 441.113 541.3 481.057 542.5C521 543.7 560.943 549.3 600.887 551.7C640.83 554 680.773 553 721.064 550.5C761.181 548 801.819 544 841.936 546.7C882.227 549.3 922.17 558.7 962.113 558.8C1002.06 559 1042 550 1081.94 547.2C1121.89 544.3 1161.83 547.7 1202.12 547C1242.24 546.3 1282.88 541.7 1322.99 541.5C1363.28 541.3 1403.23 545.7 1443.17 545.7C1483.11 545.7 1523.06 541.3 1543.03 539.2L1563 537V631H1543.03C1523.06 631 1483.11 631 1443.17 631C1403.23 631 1363.28 631 1322.99 631C1282.88 631 1242.24 631 1202.12 631C1161.83 631 1121.89 631 1081.94 631C1042 631 1002.06 631 962.113 631C922.17 631 882.227 631 841.936 631C801.819 631 761.181 631 721.064 631C680.773 631 640.83 631 600.887 631C560.943 631 521 631 481.057 631C441.113 631 401.17 631 360.879 631C320.762 631 280.124 631 240.007 631C199.717 631 159.773 631 119.83 631C79.8867 631 39.9433 631 19.9717 631H0V559Z" fill="#007384"/>
<path d="M0 567L19.9717 570C39.9433 573 79.8867 579 119.83 579.8C159.773 580.7 199.717 576.3 240.007 575.2C280.124 574 320.762 576 360.879 575.2C401.17 574.3 441.113 570.7 481.057 570.2C521 569.7 560.943 572.3 600.887 571.7C640.83 571 680.773 567 721.064 566.5C761.181 566 801.819 569 841.936 574.3C882.227 579.7 922.17 587.3 962.113 591C1002.06 594.7 1042 594.3 1081.94 590C1121.89 585.7 1161.83 577.3 1202.12 575.8C1242.24 574.3 1282.88 579.7 1322.99 584C1363.28 588.3 1403.23 591.7 1443.17 590.2C1483.11 588.7 1523.06 582.3 1543.03 579.2L1563 576V631H1543.03C1523.06 631 1483.11 631 1443.17 631C1403.23 631 1363.28 631 1322.99 631C1282.88 631 1242.24 631 1202.12 631C1161.83 631 1121.89 631 1081.94 631C1042 631 1002.06 631 962.113 631C922.17 631 882.227 631 841.936 631C801.819 631 761.181 631 721.064 631C680.773 631 640.83 631 600.887 631C560.943 631 521 631 481.057 631C441.113 631 401.17 631 360.879 631C320.762 631 280.124 631 240.007 631C199.717 631 159.773 631 119.83 631C79.8867 631 39.9433 631 19.9717 631H0V567Z" fill="#00596F"/>
<path d="M0 596L19.9717 597.3C39.9433 598.7 79.8867 601.3 119.83 603.3C159.773 605.3 199.717 606.7 240.007 603.8C280.124 601 320.762 594 360.879 594C401.17 594 441.113 601 481.057 602.3C521 603.7 560.943 599.3 600.887 596.5C640.83 593.7 680.773 592.3 721.064 592.3C761.181 592.3 801.819 593.7 841.936 595.2C882.227 596.7 922.17 598.3 962.113 598.5C1002.06 598.7 1042 597.3 1081.94 596.7C1121.89 596 1161.83 596 1202.12 598.2C1242.24 600.3 1282.88 604.7 1322.99 605.3C1363.28 606 1403.23 603 1443.17 603.7C1483.11 604.3 1523.06 608.7 1543.03 610.8L1563 613V631H1543.03C1523.06 631 1483.11 631 1443.17 631C1403.23 631 1363.28 631 1322.99 631C1282.88 631 1242.24 631 1202.12 631C1161.83 631 1121.89 631 1081.94 631C1042 631 1002.06 631 962.113 631C922.17 631 882.227 631 841.936 631C801.819 631 761.181 631 721.064 631C680.773 631 640.83 631 600.887 631C560.943 631 521 631 481.057 631C441.113 631 401.17 631 360.879 631C320.762 631 280.124 631 240.007 631C199.717 631 159.773 631 119.83 631C79.8867 631 39.9433 631 19.9717 631H0V596Z" fill="#024058"/>
</g>
<path d="M527.54 302V261.273H554.506V268.372H536.151V278.077H552.716V285.176H536.151V302H527.54ZM560.206 302V271.455H568.419V276.784H568.738C569.294 274.888 570.229 273.456 571.542 272.489C572.854 271.508 574.365 271.017 576.076 271.017C576.5 271.017 576.957 271.044 577.448 271.097C577.938 271.15 578.369 271.223 578.74 271.315V278.832C578.343 278.713 577.792 278.607 577.09 278.514C576.387 278.421 575.744 278.375 575.161 278.375C573.915 278.375 572.801 278.647 571.82 279.19C570.852 279.721 570.083 280.463 569.513 281.418C568.956 282.372 568.678 283.473 568.678 284.719V302H560.206ZM596.06 302.597C592.971 302.597 590.299 301.94 588.045 300.628C585.805 299.302 584.075 297.459 582.855 295.099C581.635 292.726 581.026 289.975 581.026 286.847C581.026 283.691 581.635 280.934 582.855 278.574C584.075 276.201 585.805 274.358 588.045 273.045C590.299 271.72 592.971 271.057 596.06 271.057C599.149 271.057 601.813 271.72 604.054 273.045C606.308 274.358 608.044 276.201 609.264 278.574C610.484 280.934 611.094 283.691 611.094 286.847C611.094 289.975 610.484 292.726 609.264 295.099C608.044 297.459 606.308 299.302 604.054 300.628C601.813 301.94 599.149 302.597 596.06 302.597ZM596.099 296.034C597.505 296.034 598.678 295.636 599.619 294.841C600.561 294.032 601.27 292.932 601.747 291.54C602.238 290.148 602.483 288.563 602.483 286.787C602.483 285.01 602.238 283.426 601.747 282.034C601.27 280.642 600.561 279.542 599.619 278.733C598.678 277.924 597.505 277.52 596.099 277.52C594.681 277.52 593.488 277.924 592.52 278.733C591.565 279.542 590.843 280.642 590.352 282.034C589.875 283.426 589.636 285.01 589.636 286.787C589.636 288.563 589.875 290.148 590.352 291.54C590.843 292.932 591.565 294.032 592.52 294.841C593.488 295.636 594.681 296.034 596.099 296.034ZM625.634 284.341V302H617.162V271.455H625.236V276.844H625.594C626.27 275.067 627.404 273.662 628.995 272.628C630.586 271.58 632.515 271.057 634.782 271.057C636.903 271.057 638.752 271.521 640.33 272.449C641.908 273.377 643.134 274.703 644.009 276.426C644.884 278.136 645.321 280.178 645.321 282.551V302H636.85V284.062C636.863 282.193 636.386 280.735 635.418 279.688C634.45 278.627 633.118 278.097 631.421 278.097C630.281 278.097 629.273 278.342 628.398 278.832C627.536 279.323 626.86 280.039 626.37 280.98C625.892 281.908 625.647 283.028 625.634 284.341ZM668.805 271.455V277.818H650.41V271.455H668.805ZM654.587 264.136H663.058V292.614C663.058 293.396 663.177 294.006 663.416 294.443C663.655 294.867 663.986 295.166 664.41 295.338C664.848 295.51 665.352 295.597 665.922 295.597C666.32 295.597 666.717 295.563 667.115 295.497C667.513 295.418 667.818 295.358 668.03 295.318L669.362 301.622C668.938 301.755 668.341 301.907 667.572 302.08C666.803 302.265 665.869 302.378 664.768 302.418C662.727 302.497 660.937 302.225 659.399 301.602C657.874 300.979 656.688 300.011 655.839 298.699C654.991 297.386 654.573 295.729 654.587 293.727V264.136ZM688.476 302.597C685.334 302.597 682.63 301.96 680.363 300.688C678.109 299.402 676.372 297.585 675.152 295.239C673.933 292.879 673.323 290.088 673.323 286.866C673.323 283.724 673.933 280.967 675.152 278.594C676.372 276.221 678.089 274.371 680.303 273.045C682.53 271.72 685.142 271.057 688.138 271.057C690.153 271.057 692.029 271.382 693.766 272.031C695.516 272.668 697.041 273.629 698.34 274.915C699.652 276.201 700.673 277.818 701.402 279.767C702.131 281.703 702.496 283.97 702.496 286.568V288.895H676.703V283.645H694.522C694.522 282.425 694.256 281.345 693.726 280.403C693.196 279.462 692.46 278.726 691.519 278.196C690.591 277.652 689.51 277.381 688.277 277.381C686.991 277.381 685.851 277.679 684.857 278.276C683.876 278.859 683.107 279.648 682.55 280.642C681.993 281.623 681.708 282.717 681.695 283.923V288.915C681.695 290.426 681.973 291.732 682.53 292.832C683.1 293.933 683.902 294.781 684.936 295.378C685.97 295.974 687.197 296.273 688.615 296.273C689.557 296.273 690.418 296.14 691.201 295.875C691.983 295.61 692.652 295.212 693.209 294.682C693.766 294.152 694.19 293.502 694.482 292.733L702.317 293.25C701.919 295.133 701.104 296.777 699.871 298.182C698.651 299.574 697.074 300.661 695.138 301.443C693.216 302.212 690.995 302.597 688.476 302.597ZM717.056 284.341V302H708.584V271.455H716.658V276.844H717.016C717.692 275.067 718.826 273.662 720.417 272.628C722.008 271.58 723.937 271.057 726.204 271.057C728.325 271.057 730.174 271.521 731.752 272.449C733.33 273.377 734.556 274.703 735.431 276.426C736.306 278.136 736.744 280.178 736.744 282.551V302H728.272V284.062C728.285 282.193 727.808 280.735 726.84 279.688C725.872 278.627 724.54 278.097 722.843 278.097C721.703 278.097 720.695 278.342 719.82 278.832C718.958 279.323 718.282 280.039 717.792 280.98C717.315 281.908 717.069 283.028 717.056 284.341ZM755.236 302.497C752.916 302.497 750.815 301.901 748.932 300.707C747.063 299.501 745.578 297.731 744.478 295.398C743.39 293.051 742.847 290.174 742.847 286.767C742.847 283.267 743.41 280.357 744.537 278.037C745.664 275.704 747.162 273.96 749.032 272.807C750.914 271.64 752.976 271.057 755.216 271.057C756.926 271.057 758.352 271.348 759.492 271.932C760.645 272.502 761.573 273.218 762.276 274.08C762.992 274.928 763.535 275.763 763.907 276.585H764.165V261.273H772.617V302H764.264V297.108H763.907C763.509 297.956 762.945 298.798 762.216 299.634C761.5 300.455 760.566 301.138 759.412 301.682C758.272 302.225 756.88 302.497 755.236 302.497ZM757.921 295.756C759.286 295.756 760.44 295.384 761.381 294.642C762.335 293.886 763.065 292.832 763.568 291.48C764.085 290.128 764.344 288.544 764.344 286.727C764.344 284.911 764.092 283.333 763.588 281.994C763.085 280.655 762.355 279.621 761.401 278.892C760.446 278.163 759.286 277.798 757.921 277.798C756.529 277.798 755.355 278.176 754.401 278.932C753.446 279.687 752.724 280.735 752.233 282.074C751.743 283.413 751.497 284.964 751.497 286.727C751.497 288.504 751.743 290.075 752.233 291.44C752.737 292.793 753.46 293.853 754.401 294.622C755.355 295.378 756.529 295.756 757.921 295.756ZM793.822 302V261.273H821.265V268.372H802.433V278.077H819.853V285.176H802.433V294.901H821.345V302H793.822ZM836.984 284.341V302H828.512V271.455H836.586V276.844H836.944C837.62 275.067 838.753 273.662 840.344 272.628C841.935 271.58 843.864 271.057 846.131 271.057C848.252 271.057 850.102 271.521 851.68 272.449C853.257 273.377 854.484 274.703 855.359 276.426C856.234 278.136 856.671 280.178 856.671 282.551V302H848.199V284.062C848.213 282.193 847.735 280.735 846.768 279.688C845.8 278.627 844.467 278.097 842.77 278.097C841.63 278.097 840.623 278.342 839.748 278.832C838.886 279.323 838.21 280.039 837.719 280.98C837.242 281.908 836.997 283.028 836.984 284.341ZM877.669 314.091C874.925 314.091 872.572 313.713 870.61 312.957C868.661 312.215 867.11 311.201 865.956 309.915C864.803 308.629 864.054 307.184 863.709 305.58L871.544 304.526C871.783 305.135 872.161 305.705 872.678 306.236C873.195 306.766 873.878 307.19 874.726 307.509C875.588 307.84 876.635 308.006 877.868 308.006C879.711 308.006 881.229 307.555 882.422 306.653C883.629 305.765 884.232 304.274 884.232 302.179V296.591H883.874C883.503 297.439 882.946 298.241 882.203 298.997C881.461 299.753 880.506 300.369 879.34 300.847C878.173 301.324 876.781 301.562 875.164 301.562C872.87 301.562 870.782 301.032 868.899 299.972C867.03 298.898 865.539 297.26 864.425 295.06C863.325 292.846 862.774 290.048 862.774 286.668C862.774 283.207 863.338 280.317 864.465 277.997C865.592 275.677 867.09 273.94 868.959 272.787C870.842 271.634 872.903 271.057 875.144 271.057C876.854 271.057 878.286 271.348 879.439 271.932C880.593 272.502 881.521 273.218 882.223 274.08C882.939 274.928 883.489 275.763 883.874 276.585H884.192V271.455H892.604V302.298C892.604 304.897 891.968 307.071 890.695 308.821C889.422 310.571 887.659 311.884 885.405 312.759C883.165 313.647 880.586 314.091 877.669 314.091ZM877.848 295.199C879.214 295.199 880.367 294.861 881.308 294.185C882.263 293.495 882.992 292.514 883.496 291.241C884.013 289.955 884.272 288.418 884.272 286.628C884.272 284.838 884.02 283.287 883.516 281.974C883.012 280.649 882.283 279.621 881.328 278.892C880.374 278.163 879.214 277.798 877.848 277.798C876.456 277.798 875.283 278.176 874.328 278.932C873.374 279.674 872.651 280.708 872.161 282.034C871.67 283.36 871.425 284.891 871.425 286.628C871.425 288.391 871.67 289.916 872.161 291.202C872.665 292.474 873.387 293.462 874.328 294.165C875.283 294.854 876.456 295.199 877.848 295.199ZM899.905 302V271.455H908.377V302H899.905ZM904.161 267.517C902.902 267.517 901.821 267.099 900.92 266.264C900.031 265.416 899.587 264.402 899.587 263.222C899.587 262.055 900.031 261.054 900.92 260.219C901.821 259.37 902.902 258.946 904.161 258.946C905.421 258.946 906.494 259.37 907.383 260.219C908.284 261.054 908.735 262.055 908.735 263.222C908.735 264.402 908.284 265.416 907.383 266.264C906.494 267.099 905.421 267.517 904.161 267.517ZM924.195 284.341V302H915.723V271.455H923.797V276.844H924.155C924.831 275.067 925.965 273.662 927.556 272.628C929.146 271.58 931.075 271.057 933.342 271.057C935.464 271.057 937.313 271.521 938.891 272.449C940.468 273.377 941.695 274.703 942.57 276.426C943.445 278.136 943.882 280.178 943.882 282.551V302H935.411V284.062C935.424 282.193 934.947 280.735 933.979 279.688C933.011 278.627 931.679 278.097 929.982 278.097C928.842 278.097 927.834 278.342 926.959 278.832C926.097 279.323 925.421 280.039 924.931 280.98C924.453 281.908 924.208 283.028 924.195 284.341ZM965.04 302.597C961.898 302.597 959.193 301.96 956.926 300.688C954.672 299.402 952.935 297.585 951.716 295.239C950.496 292.879 949.886 290.088 949.886 286.866C949.886 283.724 950.496 280.967 951.716 278.594C952.935 276.221 954.652 274.371 956.866 273.045C959.094 271.72 961.705 271.057 964.702 271.057C966.717 271.057 968.593 271.382 970.329 272.031C972.079 272.668 973.604 273.629 974.903 274.915C976.216 276.201 977.237 277.818 977.966 279.767C978.695 281.703 979.059 283.97 979.059 286.568V288.895H953.267V283.645H971.085C971.085 282.425 970.82 281.345 970.29 280.403C969.759 279.462 969.023 278.726 968.082 278.196C967.154 277.652 966.074 277.381 964.841 277.381C963.555 277.381 962.415 277.679 961.42 278.276C960.439 278.859 959.67 279.648 959.113 280.642C958.557 281.623 958.272 282.717 958.258 283.923V288.915C958.258 290.426 958.537 291.732 959.094 292.832C959.664 293.933 960.466 294.781 961.5 295.378C962.534 295.974 963.76 296.273 965.179 296.273C966.12 296.273 966.982 296.14 967.764 295.875C968.546 295.61 969.216 295.212 969.773 294.682C970.329 294.152 970.754 293.502 971.045 292.733L978.88 293.25C978.483 295.133 977.667 296.777 976.434 298.182C975.215 299.574 973.637 300.661 971.702 301.443C969.779 302.212 967.559 302.597 965.04 302.597ZM999.068 302.597C995.926 302.597 993.222 301.96 990.955 300.688C988.701 299.402 986.964 297.585 985.744 295.239C984.525 292.879 983.915 290.088 983.915 286.866C983.915 283.724 984.525 280.967 985.744 278.594C986.964 276.221 988.681 274.371 990.895 273.045C993.122 271.72 995.734 271.057 998.73 271.057C1000.75 271.057 1002.62 271.382 1004.36 272.031C1006.11 272.668 1007.63 273.629 1008.93 274.915C1010.24 276.201 1011.27 277.818 1011.99 279.767C1012.72 281.703 1013.09 283.97 1013.09 286.568V288.895H987.296V283.645H1005.11C1005.11 282.425 1004.85 281.345 1004.32 280.403C1003.79 279.462 1003.05 278.726 1002.11 278.196C1001.18 277.652 1000.1 277.381 998.869 277.381C997.583 277.381 996.443 277.679 995.449 278.276C994.468 278.859 993.699 279.648 993.142 280.642C992.585 281.623 992.3 282.717 992.287 283.923V288.915C992.287 290.426 992.565 291.732 993.122 292.832C993.692 293.933 994.494 294.781 995.529 295.378C996.563 295.974 997.789 296.273 999.208 296.273C1000.15 296.273 1001.01 296.14 1001.79 295.875C1002.57 295.61 1003.24 295.212 1003.8 294.682C1004.36 294.152 1004.78 293.502 1005.07 292.733L1012.91 293.25C1012.51 295.133 1011.7 296.777 1010.46 298.182C1009.24 299.574 1007.67 300.661 1005.73 301.443C1003.81 302.212 1001.59 302.597 999.068 302.597ZM1019.18 302V271.455H1027.39V276.784H1027.71C1028.26 274.888 1029.2 273.456 1030.51 272.489C1031.82 271.508 1033.34 271.017 1035.05 271.017C1035.47 271.017 1035.93 271.044 1036.42 271.097C1036.91 271.15 1037.34 271.223 1037.71 271.315V278.832C1037.31 278.713 1036.76 278.607 1036.06 278.514C1035.36 278.421 1034.71 278.375 1034.13 278.375C1032.88 278.375 1031.77 278.647 1030.79 279.19C1029.82 279.721 1029.05 280.463 1028.48 281.418C1027.93 282.372 1027.65 283.473 1027.65 284.719V302H1019.18ZM539.869 369.597C537.059 369.597 534.633 369.093 532.591 368.085C530.549 367.078 528.978 365.712 527.878 363.989C526.791 362.252 526.247 360.316 526.247 358.182C526.247 356.591 526.565 355.179 527.202 353.946C527.838 352.713 528.726 351.58 529.866 350.545C531.007 349.498 532.332 348.457 533.844 347.423L541.739 342.233C542.759 341.583 543.509 340.901 543.986 340.185C544.463 339.455 544.702 338.667 544.702 337.818C544.702 337.009 544.377 336.26 543.727 335.571C543.078 334.882 542.156 334.544 540.963 334.557C540.168 334.557 539.478 334.736 538.895 335.094C538.312 335.438 537.854 335.896 537.523 336.466C537.205 337.023 537.045 337.646 537.045 338.335C537.045 339.184 537.284 340.045 537.761 340.92C538.239 341.795 538.875 342.723 539.67 343.705C540.466 344.672 541.334 345.72 542.276 346.847L561.585 369H552.756L536.648 351.062C535.587 349.856 534.527 348.597 533.466 347.284C532.419 345.958 531.544 344.553 530.841 343.068C530.138 341.57 529.787 339.946 529.787 338.196C529.787 336.221 530.244 334.444 531.159 332.866C532.087 331.289 533.386 330.043 535.057 329.128C536.727 328.2 538.676 327.736 540.903 327.736C543.078 327.736 544.954 328.18 546.531 329.068C548.122 329.943 549.342 331.11 550.19 332.568C551.052 334.013 551.483 335.604 551.483 337.341C551.483 339.263 551.006 341.007 550.051 342.571C549.11 344.122 547.784 345.514 546.074 346.747L537.761 352.733C536.634 353.555 535.799 354.397 535.256 355.259C534.725 356.107 534.46 356.922 534.46 357.705C534.46 358.672 534.699 359.541 535.176 360.31C535.653 361.079 536.33 361.688 537.205 362.139C538.08 362.577 539.107 362.795 540.287 362.795C541.719 362.795 543.131 362.471 544.523 361.821C545.928 361.158 547.201 360.223 548.341 359.017C549.494 357.797 550.416 356.352 551.105 354.682C551.795 353.011 552.139 351.162 552.139 349.134H559.159C559.159 351.626 558.887 353.873 558.344 355.875C557.8 357.864 557.045 359.6 556.077 361.085C555.109 362.557 554.002 363.763 552.756 364.705C552.358 364.956 551.973 365.195 551.602 365.42C551.231 365.646 550.847 365.884 550.449 366.136C548.938 367.356 547.247 368.238 545.378 368.781C543.522 369.325 541.686 369.597 539.869 369.597ZM579.355 328.273H589.974L601.19 355.636H601.668L612.883 328.273H623.503V369H615.151V342.491H614.812L604.273 368.801H598.585L588.045 342.392H587.707V369H579.355V328.273ZM644.799 369.597C641.71 369.597 639.039 368.94 636.785 367.628C634.545 366.302 632.814 364.459 631.595 362.099C630.375 359.726 629.765 356.975 629.765 353.847C629.765 350.691 630.375 347.934 631.595 345.574C632.814 343.201 634.545 341.358 636.785 340.045C639.039 338.72 641.71 338.057 644.799 338.057C647.888 338.057 650.553 338.72 652.794 340.045C655.047 341.358 656.784 343.201 658.004 345.574C659.224 347.934 659.833 350.691 659.833 353.847C659.833 356.975 659.224 359.726 658.004 362.099C656.784 364.459 655.047 366.302 652.794 367.628C650.553 368.94 647.888 369.597 644.799 369.597ZM644.839 363.034C646.244 363.034 647.418 362.636 648.359 361.841C649.3 361.032 650.01 359.932 650.487 358.54C650.977 357.148 651.223 355.563 651.223 353.787C651.223 352.01 650.977 350.426 650.487 349.034C650.01 347.642 649.3 346.542 648.359 345.733C647.418 344.924 646.244 344.52 644.839 344.52C643.421 344.52 642.227 344.924 641.26 345.733C640.305 346.542 639.582 347.642 639.092 349.034C638.615 350.426 638.376 352.01 638.376 353.787C638.376 355.563 638.615 357.148 639.092 358.54C639.582 359.932 640.305 361.032 641.26 361.841C642.227 362.636 643.421 363.034 644.839 363.034ZM665.902 369V338.455H674.115V343.784H674.433C674.99 341.888 675.925 340.456 677.237 339.489C678.55 338.508 680.061 338.017 681.771 338.017C682.195 338.017 682.653 338.044 683.143 338.097C683.634 338.15 684.065 338.223 684.436 338.315V345.832C684.038 345.713 683.488 345.607 682.785 345.514C682.083 345.421 681.44 345.375 680.856 345.375C679.61 345.375 678.497 345.647 677.516 346.19C676.548 346.721 675.779 347.463 675.209 348.418C674.652 349.372 674.374 350.473 674.374 351.719V369H665.902ZM701.875 369.597C698.733 369.597 696.028 368.96 693.761 367.688C691.507 366.402 689.77 364.585 688.551 362.239C687.331 359.879 686.721 357.088 686.721 353.866C686.721 350.724 687.331 347.967 688.551 345.594C689.77 343.221 691.487 341.371 693.701 340.045C695.929 338.72 698.54 338.057 701.537 338.057C703.552 338.057 705.428 338.382 707.164 339.031C708.914 339.668 710.439 340.629 711.738 341.915C713.051 343.201 714.072 344.818 714.801 346.767C715.53 348.703 715.894 350.97 715.894 353.568V355.895H690.102V350.645H707.92C707.92 349.425 707.655 348.345 707.125 347.403C706.594 346.462 705.858 345.726 704.917 345.196C703.989 344.652 702.909 344.381 701.676 344.381C700.39 344.381 699.25 344.679 698.255 345.276C697.274 345.859 696.505 346.648 695.948 347.642C695.392 348.623 695.107 349.717 695.093 350.923V355.915C695.093 357.426 695.372 358.732 695.929 359.832C696.499 360.933 697.301 361.781 698.335 362.378C699.369 362.974 700.595 363.273 702.014 363.273C702.955 363.273 703.817 363.14 704.599 362.875C705.381 362.61 706.051 362.212 706.608 361.682C707.164 361.152 707.589 360.502 707.88 359.733L715.715 360.25C715.318 362.133 714.502 363.777 713.269 365.182C712.05 366.574 710.472 367.661 708.537 368.443C706.614 369.212 704.394 369.597 701.875 369.597Z" fill="url(#paint0_linear_178_1154)"/>
<defs>
<linearGradient id="paint0_linear_178_1154" x1="781.5" y1="248" x2="781.5" y2="382" gradientUnits="userSpaceOnUse">
<stop stop-color="#02C39A"/>
<stop offset="1" stop-color="#135EC5"/>
</linearGradient>
<clipPath id="clip0_178_1154">
<rect width="1563" height="200" fill="white" transform="translate(0 430)"/>
</clipPath>
</defs>
</svg>
